<svg width="96" height="96" viewBox="0 0 96 96" fill="none" xmlns="http://www.w3.org/2000/svg">
<path d="M48 84C38 84 29.5 80.5 22.5 73.5C15.5 66.5 12 58 12 48C12 38 15.5 29.5 22.5 22.5C29.5 15.5 38 12 48 12C48.5333 12 49.1 12.0167 49.7 12.05C50.3 12.0833 51.0667 12.1333 52 12.2C49.6 14.3333 47.7333 16.9667 46.4 20.1C45.0667 23.2333 44.4 26.5333 44.4 30C44.4 36 46.5 41.1 50.7 45.3C54.9 49.5 60 51.6 66 51.6C69.4667 51.6 72.7667 50.9833 75.9 49.75C79.0333 48.5167 81.6667 46.8 83.8 44.6C83.8667 45.4 83.9167 46.05 83.95 46.55C83.9833 47.05 84 47.5333 84 48C84 58 80.5 66.5 73.5 73.5C66.5 80.5 58 84 48 84ZM48 78C55.2667 78 61.6 75.75 67 71.25C72.4 66.75 75.7667 61.4667 77.1 55.4C75.4333 56.1333 73.6444 56.6833 71.7333 57.05C69.8222 57.4167 67.9111 57.6 66 57.6C58.3541 57.6 51.8426 54.9115 46.4655 49.5345C41.0885 44.1574 38.4 37.6459 38.4 30C38.4 28.4 38.5667 26.6833 38.9 24.85C39.2333 23.0167 39.8333 20.9333 40.7 18.6C34.1667 20.4 28.75 24.05 24.45 29.55C20.15 35.05 18 41.2 18 48C18 56.3333 20.9167 63.4167 26.75 69.25C32.5833 75.0833 39.6667 78 48 78Z" fill="black"/>
</svg>
