<svg width="96" height="96" viewBox="0 0 96 96" fill="none" xmlns="http://www.w3.org/2000/svg">
<path d="M47.9765 62C51.8588 62 55.1667 60.6412 57.9 57.9235C60.6333 55.2059 62 51.9059 62 48.0235C62 44.1412 60.6412 40.8333 57.9235 38.1C55.2059 35.3667 51.9059 34 48.0235 34C44.1412 34 40.8333 35.3588 38.1 38.0765C35.3667 40.7941 34 44.0941 34 47.9765C34 51.8588 35.3588 55.1667 38.0765 57.9C40.7941 60.6333 44.0941 62 47.9765 62ZM48 68C42.4667 68 37.75 66.05 33.85 62.15C29.95 58.25 28 53.5333 28 48C28 42.4667 29.95 37.75 33.85 33.85C37.75 29.95 42.4667 28 48 28C53.5333 28 58.25 29.95 62.15 33.85C66.05 37.75 68 42.4667 68 48C68 53.5333 66.05 58.25 62.15 62.15C58.25 66.05 53.5333 68 48 68ZM7 51C6.15 51 5.4375 50.7108 4.8625 50.1325C4.2875 49.5541 4 48.8374 4 47.9825C4 47.1275 4.2875 46.4167 4.8625 45.85C5.4375 45.2833 6.15 45 7 45H17C17.85 45 18.5625 45.2892 19.1375 45.8675C19.7125 46.4459 20 47.1626 20 48.0175C20 48.8725 19.7125 49.5833 19.1375 50.15C18.5625 50.7167 17.85 51 17 51H7ZM79 51C78.15 51 77.4375 50.7108 76.8625 50.1325C76.2875 49.5541 76 48.8374 76 47.9825C76 47.1275 76.2875 46.4167 76.8625 45.85C77.4375 45.2833 78.15 45 79 45H89C89.85 45 90.5625 45.2892 91.1375 45.8675C91.7125 46.4459 92 47.1626 92 48.0175C92 48.8725 91.7125 49.5833 91.1375 50.15C90.5625 50.7167 89.85 51 89 51H79ZM47.9825 20C47.1275 20 46.4167 19.7125 45.85 19.1375C45.2833 18.5625 45 17.85 45 17V7C45 6.15 45.2892 5.4375 45.8675 4.8625C46.4459 4.2875 47.1626 4 48.0175 4C48.8725 4 49.5833 4.2875 50.15 4.8625C50.7167 5.4375 51 6.15 51 7V17C51 17.85 50.7108 18.5625 50.1325 19.1375C49.5541 19.7125 48.8374 20 47.9825 20ZM47.9825 92C47.1275 92 46.4167 91.7125 45.85 91.1375C45.2833 90.5625 45 89.85 45 89V79C45 78.15 45.2892 77.4375 45.8675 76.8625C46.4459 76.2875 47.1626 76 48.0175 76C48.8725 76 49.5833 76.2875 50.15 76.8625C50.7167 77.4375 51 78.15 51 79V89C51 89.85 50.7108 90.5625 50.1325 91.1375C49.5541 91.7125 48.8374 92 47.9825 92ZM24 28.2L18.3 22.6C17.7 22 17.4124 21.2799 17.4371 20.4397C17.4618 19.5994 17.746 18.8828 18.2897 18.2897C18.8828 17.6966 19.5994 17.4 20.4397 17.4C21.2799 17.4 22 17.7 22.6 18.3L28.2 24C28.7333 24.6 29 25.3 29 26.1C29 26.9 28.7333 27.5833 28.2 28.15C27.6667 28.7167 26.9833 29 26.15 29C25.3167 29 24.6 28.7333 24 28.2ZM73.4 77.7L67.8 72C67.2667 71.4 67 70.6875 67 69.8625C67 69.0375 67.2833 68.35 67.85 67.8C68.4167 67.2 69.1 66.9 69.9 66.9C70.7 66.9 71.4 67.2 72 67.8L77.7 73.4C78.3 74 78.5876 74.7201 78.5629 75.5603C78.5382 76.4006 78.254 77.1172 77.7103 77.7103C77.1172 78.3034 76.4006 78.6 75.5603 78.6C74.7201 78.6 74 78.3 73.4 77.7ZM67.8 28.2C67.2 27.6 66.9 26.9 66.9 26.1C66.9 25.3 67.2 24.6 67.8 24L73.4 18.3C74 17.7 74.7201 17.4124 75.5603 17.4371C76.4006 17.4618 77.1172 17.746 77.7103 18.2897C78.3034 18.8828 78.6 19.5994 78.6 20.4397C78.6 21.2799 78.3 22 77.7 22.6L72 28.2C71.4667 28.7333 70.7879 29 69.9636 29C69.1394 29 68.4182 28.7333 67.8 28.2ZM18.2897 77.7103C17.6966 77.1172 17.4 76.4006 17.4 75.5603C17.4 74.7201 17.7 74 18.3 73.4L24 67.8C24.5867 67.2 25.2833 66.9 26.09 66.9C26.8967 66.9 27.587 67.2 28.1609 67.8C28.787 68.4 29.1 69.1 29.1 69.9C29.1 70.7 28.8 71.4 28.2 72L22.6 77.7C22 78.3 21.2799 78.5876 20.4397 78.5629C19.5994 78.5382 18.8828 78.254 18.2897 77.7103Z" fill="#6F6F6F"/>
</svg>
