<svg width="100" height="100" viewBox="0 0 100 100" fill="none" xmlns="http://www.w3.org/2000/svg">
<path d="M50.918 6.62109C52.2461 7.10938 53.3789 7.91016 54.6289 9.21875C55.918 10.6055 56.6797 11.7969 58.3008 15.0391C59.9609 18.3789 61.0156 19.8438 62.5391 20.9961C64.0039 22.0898 64.6094 22.4219 69.3945 24.6484C73.8672 26.7188 75.8398 27.8711 77.4219 29.3164L78.6328 30.4297L79.1992 29.9609C83.5352 26.4844 90.3906 29.2383 92.793 35.4297C94.0039 38.5547 95.4883 44.8828 96.1914 49.9023C97.207 57.2656 97.0898 64.668 95.8984 68.2812C94.9805 71.0352 93.0078 73.3984 90.6641 74.5508C89.375 75.1953 89.0625 75.2734 87.6953 75.2734C86.3281 75.2734 85.9961 75.1953 84.7266 74.5508L83.2812 73.8477L81.582 75.4883C78.7305 78.2422 75.2148 80.3516 71.3477 81.6211C68.8477 82.4609 67.0508 82.7734 63.9648 82.9297C59.4531 83.1445 58.3008 83.5547 53.0859 86.8359C47.5977 90.2539 41.8945 92.7148 37.6172 93.457C35.332 93.8477 31.9336 93.8477 30.293 93.4375C27.5781 92.7539 25.5859 91.3672 24.6875 89.5313C24.2188 88.5742 24.1797 88.3008 24.2578 86.8555C24.3359 85.332 24.668 84.3555 25.7227 82.4023C25.7617 82.3438 24.8828 82.2266 23.7891 82.168C18.418 81.8359 14.5508 79.8633 12.9688 76.6406C12.4805 75.6445 12.4023 75.2539 12.4023 73.8281C12.4023 72.4023 12.4805 72.0117 12.9688 71.0156C13.5938 69.7461 15.0977 68.1445 16.6211 67.1094L17.6172 66.4453L17.0508 66.3477C16.7578 66.2891 15.9766 66.1719 15.332 66.1133C13.418 65.8984 10.7031 65.1172 9.0625 64.3164C7.14844 63.3984 5 61.3672 4.23828 59.7656C3.125 57.4609 2.79297 54.375 3.4375 52.3828C4.375 49.4922 7.67578 47.2461 12.9688 45.918L15.0977 45.3711L14.2383 44.7656C13.75 44.4531 13.0273 43.8086 12.6172 43.3594C10.1758 40.6445 9.96094 35.7813 12.1289 32.3828C13.5156 30.2344 16.1719 28.4961 19.082 27.8516C21.3086 27.3633 24.1797 27.4805 33.0664 28.418C42.207 29.375 45.5664 29.6875 45.6641 29.6094C45.6836 29.5703 45 28.5938 44.1211 27.4219C39.8438 21.6797 38.8086 16.2305 41.0742 11.4258C41.9727 9.53125 43.6133 7.79297 45.2734 6.99219C46.3867 6.44531 46.8164 6.34766 48.2422 6.28906C49.4922 6.25 50.1563 6.32812 50.918 6.62109ZM46.7188 10.1758C45.0977 10.9766 43.6719 13.3984 43.4375 15.8008C43.2813 17.5 43.8086 19.9609 44.7266 21.8359C45.1758 22.7344 46.4844 24.7266 47.6563 26.2695C48.8281 27.8125 50.0977 29.6484 50.4883 30.3711C51.4844 32.1289 52.3828 34.7656 53.1055 37.9297C53.8867 41.4453 54.4922 42.6172 56.5234 44.6289C59.0625 47.1484 61.3477 48.0469 65.3516 48.0469C67.2461 48.0469 67.5586 48.0859 67.9297 48.4375C68.8672 49.3164 68.6133 50.8008 67.4609 51.2891C66.582 51.6602 63.4375 51.6406 61.5625 51.25C57.5977 50.4492 54.1797 48.1055 51.875 44.6484C50.8789 43.125 50.2539 41.543 49.7852 39.2969C49.3164 36.9727 48.9453 35.5664 48.3984 34.2188L48.0078 33.2031H46.7969C45.2734 33.2031 40.957 32.793 32.8125 31.8945C24.8633 31.0156 20.4688 30.8984 18.7109 31.5625C15.6641 32.7344 14.1797 34.7656 14.1797 37.8125C14.1992 41.2109 16.3086 42.7734 22.5977 44.0234C24.6289 44.4336 25.6836 44.5313 28.2617 44.5313C32.8125 44.5313 37.6367 45.0977 38.6719 45.7617C39.5313 46.2891 39.6875 47.5586 39.0039 48.3594C38.4375 49.0234 37.9102 49.043 35.3516 48.5352C33.75 48.2031 32.5977 48.1445 27.0508 48.1445C20.4492 48.1445 18.9258 48.2617 15.0781 49.043C10.7422 49.9219 7.85156 51.3867 6.91406 53.1641C6.54297 53.8672 6.5625 55.7422 6.95312 57.0312C7.55859 59.043 8.73047 60.293 10.9961 61.3281C13.6133 62.5 16.4062 62.8906 22.1094 62.8906C26.0156 62.8906 26.25 62.8711 28.2422 62.3047C32.207 61.1914 37.6172 60.332 42.2852 60.0391C44.4336 59.9219 44.4531 59.9219 45.0781 60.4492C45.5664 60.8594 45.7031 61.1133 45.7031 61.6797C45.6836 63.0664 45.1172 63.3789 42.3828 63.5547C31.3086 64.2773 20.1953 67.7734 16.8164 71.6016C14.5898 74.1406 16.3086 76.9727 20.8203 78.2227C22.2852 78.6328 26.6602 78.8281 28.3203 78.5547C29.3555 78.3789 30.0195 78.0859 31.9336 76.9336C34.9023 75.1367 38.1836 73.5547 42.3438 71.9336C46.1133 70.4688 46.8945 70.3516 47.5781 71.1523C48.1445 71.8164 48.2031 72.832 47.6953 73.3984C47.5195 73.6328 45.918 74.3555 44.0039 75.0977C37.1875 77.6953 32.3438 80.3516 30.0977 82.7148C27.7539 85.1953 27.0898 87.4023 28.3203 88.6523C29.2969 89.6094 30.8398 90.0977 33.3398 90.1953C38.1836 90.3711 44.1602 88.2617 51.1523 83.8867C56.8164 80.332 58.3398 79.7852 63.1445 79.4727C64.8438 79.375 66.8555 79.1602 67.6172 79.0039C73.8281 77.6953 79.9023 73.5352 82.168 69.043C82.8516 67.7148 83.1641 66.543 83.3789 64.6094C83.5742 62.8516 83.5352 62.1289 83.0859 59.2383C82.9688 58.4961 83.0273 58.3594 83.5547 57.8125C83.9844 57.3828 84.3359 57.2266 84.8047 57.2266C86.0938 57.2461 86.582 58.1055 86.8945 60.9766C87.1875 63.5352 86.8945 66.3477 86.1133 68.5547C85.332 70.7812 85.332 70.8984 86.1133 71.3672C88.125 72.5586 90.7031 71.1523 92.1875 68.0664C94.3555 63.5547 93.4375 49.4141 90.3125 39.1016C89.4727 36.3477 88.8867 35.1758 87.7539 33.9648C85.625 31.6797 82.4609 31.3281 80.7812 33.1836C80.4688 33.5352 80.4492 33.6914 80.6445 34.4531C81.1523 36.4844 80.625 37.6953 79.2578 37.6953C78.2422 37.6953 77.793 37.2461 77.3438 35.7813C76.2695 32.168 74.8633 31.0547 66.7969 27.3633C59.8047 24.1406 57.9102 22.3438 54.7656 15.9766C53.2422 12.8516 52.0703 11.2891 50.5859 10.3906C49.2969 9.62891 48.0273 9.55078 46.7188 10.1758Z" fill="white"/>
</svg>
