<svg width="101" height="100" viewBox="0 0 101 100" fill="none" xmlns="http://www.w3.org/2000/svg">
<path d="M51.418 6.62109C52.7461 7.10937 53.8789 7.91015 55.1289 9.21875C56.418 10.6055 57.1797 11.7969 58.8008 15.0391C60.4609 18.3789 61.5156 19.8438 63.0391 20.9961C64.5039 22.0898 65.1094 22.4219 69.8945 24.6484C74.3672 26.7188 76.3398 27.8711 77.9219 29.3164L79.1328 30.4297L79.6992 29.9609C84.0352 26.4844 90.8906 29.2383 93.293 35.4297C94.5039 38.5547 95.9883 44.8828 96.6914 49.9023C97.707 57.2656 97.5898 64.668 96.3984 68.2813C95.4805 71.0352 93.5078 73.3984 91.1641 74.5508C89.875 75.1953 89.5625 75.2734 88.1953 75.2734C86.8281 75.2734 86.4961 75.1953 85.2266 74.5508L83.7813 73.8477L82.082 75.4883C79.2305 78.2422 75.7148 80.3516 71.8477 81.6211C69.3477 82.4609 67.5508 82.7734 64.4648 82.9297C59.9531 83.1445 58.8008 83.5547 53.5859 86.8359C48.0977 90.2539 42.3945 92.7148 38.1172 93.457C35.832 93.8477 32.4336 93.8477 30.793 93.4375C28.0781 92.7539 26.0859 91.3672 25.1875 89.5313C24.7188 88.5742 24.6797 88.3008 24.7578 86.8555C24.8359 85.332 25.168 84.3555 26.2227 82.4023C26.2617 82.3438 25.3828 82.2266 24.2891 82.168C18.918 81.8359 15.0508 79.8633 13.4687 76.6406C12.9805 75.6445 12.9023 75.2539 12.9023 73.8281C12.9023 72.4023 12.9805 72.0117 13.4687 71.0156C14.0937 69.7461 15.5977 68.1445 17.1211 67.1094L18.1172 66.4453L17.5508 66.3477C17.2578 66.2891 16.4766 66.1719 15.832 66.1133C13.918 65.8984 11.2031 65.1172 9.5625 64.3164C7.64844 63.3984 5.5 61.3672 4.73828 59.7656C3.625 57.4609 3.29297 54.375 3.9375 52.3828C4.875 49.4922 8.17578 47.2461 13.4687 45.918L15.5977 45.3711L14.7383 44.7656C14.25 44.4531 13.5273 43.8086 13.1172 43.3594C10.6758 40.6445 10.4609 35.7813 12.6289 32.3828C14.0156 30.2344 16.6719 28.4961 19.582 27.8516C21.8086 27.3633 24.6797 27.4805 33.5664 28.418C42.707 29.375 46.0664 29.6875 46.1641 29.6094C46.1836 29.5703 45.5 28.5938 44.6211 27.4219C40.3438 21.6797 39.3086 16.2305 41.5742 11.4258C42.4727 9.53125 44.1133 7.79297 45.7734 6.99219C46.8867 6.44531 47.3164 6.34765 48.7422 6.28906C49.9922 6.25 50.6563 6.32812 51.418 6.62109ZM47.2188 10.1758C45.5977 10.9766 44.1719 13.3984 43.9375 15.8008C43.7813 17.5 44.3086 19.9609 45.2266 21.8359C45.6758 22.7344 46.9844 24.7266 48.1563 26.2695C49.3281 27.8125 50.5977 29.6484 50.9883 30.3711C51.9844 32.1289 52.8828 34.7656 53.6055 37.9297C54.3867 41.4453 54.9922 42.6172 57.0234 44.6289C59.5625 47.1484 61.8477 48.0469 65.8516 48.0469C67.7461 48.0469 68.0586 48.0859 68.4297 48.4375C69.3672 49.3164 69.1133 50.8008 67.9609 51.2891C67.082 51.6602 63.9375 51.6406 62.0625 51.25C58.0977 50.4492 54.6797 48.1055 52.375 44.6484C51.3789 43.125 50.7539 41.543 50.2852 39.2969C49.8164 36.9727 49.4453 35.5664 48.8984 34.2188L48.5078 33.2031H47.2969C45.7734 33.2031 41.457 32.793 33.3125 31.8945C25.3633 31.0156 20.9688 30.8984 19.2109 31.5625C16.1641 32.7344 14.6797 34.7656 14.6797 37.8125C14.6992 41.2109 16.8086 42.7734 23.0977 44.0234C25.1289 44.4336 26.1836 44.5313 28.7617 44.5313C33.3125 44.5313 38.1367 45.0977 39.1719 45.7617C40.0313 46.2891 40.1875 47.5586 39.5039 48.3594C38.9375 49.0234 38.4102 49.043 35.8516 48.5352C34.25 48.2031 33.0977 48.1445 27.5508 48.1445C20.9492 48.1445 19.4258 48.2617 15.5781 49.043C11.2422 49.9219 8.35156 51.3867 7.41406 53.1641C7.04297 53.8672 7.0625 55.7422 7.45312 57.0313C8.05859 59.043 9.23047 60.293 11.4961 61.3281C14.1133 62.5 16.9063 62.8906 22.6094 62.8906C26.5156 62.8906 26.75 62.8711 28.7422 62.3047C32.707 61.1914 38.1172 60.332 42.7852 60.0391C44.9336 59.9219 44.9531 59.9219 45.5781 60.4492C46.0664 60.8594 46.2031 61.1133 46.2031 61.6797C46.1836 63.0664 45.6172 63.3789 42.8828 63.5547C31.8086 64.2773 20.6953 67.7734 17.3164 71.6016C15.0898 74.1406 16.8086 76.9727 21.3203 78.2227C22.7852 78.6328 27.1602 78.8281 28.8203 78.5547C29.8555 78.3789 30.5195 78.0859 32.4336 76.9336C35.4023 75.1367 38.6836 73.5547 42.8438 71.9336C46.6133 70.4688 47.3945 70.3516 48.0781 71.1523C48.6445 71.8164 48.7031 72.832 48.1953 73.3984C48.0195 73.6328 46.418 74.3555 44.5039 75.0977C37.6875 77.6953 32.8438 80.3516 30.5977 82.7148C28.2539 85.1953 27.5898 87.4023 28.8203 88.6523C29.7969 89.6094 31.3398 90.0977 33.8398 90.1953C38.6836 90.3711 44.6602 88.2617 51.6523 83.8867C57.3164 80.332 58.8398 79.7852 63.6445 79.4727C65.3438 79.375 67.3555 79.1602 68.1172 79.0039C74.3281 77.6953 80.4023 73.5352 82.668 69.043C83.3516 67.7148 83.6641 66.543 83.8789 64.6094C84.0742 62.8516 84.0352 62.1289 83.5859 59.2383C83.4688 58.4961 83.5273 58.3594 84.0547 57.8125C84.4844 57.3828 84.8359 57.2266 85.3047 57.2266C86.5938 57.2461 87.082 58.1055 87.3945 60.9766C87.6875 63.5352 87.3945 66.3477 86.6133 68.5547C85.832 70.7813 85.832 70.8984 86.6133 71.3672C88.625 72.5586 91.2031 71.1523 92.6875 68.0664C94.8555 63.5547 93.9375 49.4141 90.8125 39.1016C89.9727 36.3477 89.3867 35.1758 88.2539 33.9648C86.125 31.6797 82.9609 31.3281 81.2813 33.1836C80.9688 33.5352 80.9492 33.6914 81.1445 34.4531C81.6523 36.4844 81.125 37.6953 79.7578 37.6953C78.7422 37.6953 78.293 37.2461 77.8438 35.7813C76.7695 32.168 75.3633 31.0547 67.2969 27.3633C60.3047 24.1406 58.4102 22.3438 55.2656 15.9766C53.7422 12.8516 52.5703 11.2891 51.0859 10.3906C49.7969 9.6289 48.5273 9.55078 47.2188 10.1758Z" fill="black"/>
</svg>
