<svg width="101" height="100" viewBox="0 0 101 100" fill="none" xmlns="http://www.w3.org/2000/svg">
<path d="M36.4571 14.3555C30.1094 15.5078 25.9102 20.1562 25.8907 26.0156V27.3438H25.0704C22.4336 27.3633 18.9571 28.8086 17.1016 30.6641C15.8321 31.9336 14.7188 33.9648 14.3672 35.6836C14.2305 36.3477 14.1719 37.5781 14.2305 38.6719C14.3282 40.7812 14.7969 42.207 15.8516 43.75C16.6133 44.8633 16.6329 44.9609 16.1836 45.332C15.6758 45.7617 14.6602 47.4609 14.1719 48.7305C13.625 50.1562 13.5079 53.3984 13.9571 54.9805C14.5625 57.168 16.0469 59.5508 17.6094 60.8984C18.4297 61.582 18.4688 61.6797 18.2735 62.1875C18.1758 62.4805 17.9805 63.3398 17.8633 64.082C17.1797 68.5547 19.9532 73.125 24.3672 74.8242C25.4219 75.2148 25.4805 75.2734 25.3438 75.7617C25.0704 76.7773 25.2266 79.1602 25.6758 80.4688C26.4766 82.8516 28.0977 84.4922 30.5586 85.3711C31.8086 85.8203 31.9844 85.8398 38.1954 85.8398C44.8946 85.8203 47.4727 85.6445 52.3555 84.8633C63.625 83.0469 70.8516 79.0039 73.9571 72.7344C74.7188 71.2109 75.0508 70.7227 75.2657 70.8008C79.7188 72.5 84.0743 69.2383 85.9297 62.8125C87.2383 58.3203 87.6875 52.1094 87.2188 45.4102C86.75 39.043 85.4415 34.7656 83.1563 32.2266C80.9688 29.7852 77.8829 29.1016 75.1875 30.4688C74.7774 30.6836 74.3868 30.8594 74.3282 30.8594C74.25 30.8594 73.8008 30.2148 73.293 29.4336C71.0274 25.8398 66.7696 22.9297 61.7305 21.5039C60.8516 21.25 57.9219 19.9609 54.9922 18.5547C49.4649 15.8594 46.8086 14.8633 43.879 14.375C41.6719 14.0039 38.4493 14.0039 36.4571 14.3555ZM43.0782 17.7734C45.5586 18.1641 48.6446 19.3164 53.4102 21.6797C56.418 23.1836 58.9571 24.2773 60.5782 24.8242C66.1055 26.6211 69.2891 28.9648 70.9883 32.4609C71.9844 34.5117 72.1993 35.7031 72.1407 38.7695C72.0821 41.7969 72.1993 42.207 73.1758 42.5586C73.625 42.7148 73.918 42.6953 74.4258 42.5C75.5 42.0508 75.5977 41.6797 75.6172 37.9102L75.6563 34.4922L76.1641 34.043C77.9805 32.5 80.3047 33.4766 81.75 36.4062C83 38.9453 83.625 42.6172 83.8204 48.4375C84.0938 56.4453 82.8633 63.1055 80.5782 65.9961C79.6211 67.207 78.3321 67.8711 77.2969 67.6758C75.8516 67.4219 75.7735 67.2656 75.6172 64.8047C75.3829 60.8203 75.0508 60.0586 73.5274 60.0586C72.8829 60.0586 72.629 60.1758 72.2383 60.625C71.7891 61.1719 71.7696 61.2695 71.9258 62.5781C72.1602 64.5508 72.1016 67.3047 71.8086 68.5547C71.6719 69.1406 71.2032 70.3711 70.7735 71.25C67.2383 78.4961 55.5391 82.4023 37.4141 82.4219C32.8633 82.4219 31.711 82.2461 30.5 81.4258C28.7618 80.2344 28.1758 77.3047 29.2696 75.2148C29.9141 73.9648 29.9336 73.2227 29.3477 72.5391C28.9766 72.1094 28.6836 72.0117 27.4532 71.875C25.6758 71.6992 24.4063 71.1328 23.2344 69.9805C21.2032 68.0273 20.754 65.332 21.9649 62.4609C22.7461 60.5859 22.668 60.1367 21.2813 59.2188C18.3907 57.2852 16.8672 54.4336 17.1797 51.5039C17.3555 49.707 18.0782 48.3594 19.6602 46.8555C20.8321 45.7227 21.0079 45.4688 21.0079 44.8438C21.0079 44.2578 20.8321 43.9844 19.875 43.0273C18.3125 41.4648 17.8243 40.3711 17.7266 38.2812C17.629 36.2109 18.0977 34.8438 19.3477 33.457C22.1211 30.3516 27.336 30 34.6993 32.4023C36.5743 33.0078 37.2969 33.1641 37.629 33.0273C38.8985 32.5391 39.2696 30.9766 38.3125 30.1367C37.6875 29.6094 33.5665 28.2617 31.125 27.793L29.3477 27.4609L29.4454 25.7617C29.6602 21.9727 32.004 19.1797 35.8516 18.0859C36.4375 17.9297 37.1993 17.7539 37.5118 17.7148C38.7227 17.5586 41.8477 17.5977 43.0782 17.7734Z" fill="black"/>
</svg>
