<svg width="100" height="100" viewBox="0 0 100 100" fill="none" xmlns="http://www.w3.org/2000/svg">
<path d="M35.957 14.3555C29.6094 15.5078 25.4102 20.1562 25.3906 26.0156V27.3438H24.5703C21.9336 27.3633 18.457 28.8086 16.6016 30.6641C15.332 31.9336 14.2187 33.9648 13.8672 35.6836C13.7305 36.3477 13.6719 37.5781 13.7305 38.6719C13.8281 40.7812 14.2969 42.207 15.3516 43.75C16.1133 44.8633 16.1328 44.9609 15.6836 45.332C15.1758 45.7617 14.1602 47.4609 13.6719 48.7305C13.125 50.1562 13.0078 53.3984 13.457 54.9805C14.0625 57.168 15.5469 59.5508 17.1094 60.8984C17.9297 61.582 17.9687 61.6797 17.7734 62.1875C17.6758 62.4805 17.4805 63.3398 17.3633 64.082C16.6797 68.5547 19.4531 73.125 23.8672 74.8242C24.9219 75.2148 24.9805 75.2734 24.8437 75.7617C24.5703 76.7773 24.7266 79.1602 25.1758 80.4688C25.9766 82.8516 27.5977 84.4922 30.0586 85.3711C31.3086 85.8203 31.4844 85.8398 37.6953 85.8398C44.3945 85.8203 46.9727 85.6445 51.8555 84.8633C63.125 83.0469 70.3516 79.0039 73.457 72.7344C74.2188 71.2109 74.5508 70.7227 74.7656 70.8008C79.2188 72.5 83.5742 69.2383 85.4297 62.8125C86.7383 58.3203 87.1875 52.1094 86.7188 45.4102C86.25 39.043 84.9414 34.7656 82.6562 32.2266C80.4688 29.7852 77.3828 29.1016 74.6875 30.4688C74.2773 30.6836 73.8867 30.8594 73.8281 30.8594C73.75 30.8594 73.3008 30.2148 72.793 29.4336C70.5273 25.8398 66.2695 22.9297 61.2305 21.5039C60.3516 21.25 57.4219 19.9609 54.4922 18.5547C48.9648 15.8594 46.3086 14.8633 43.3789 14.375C41.1719 14.0039 37.9492 14.0039 35.957 14.3555ZM42.5781 17.7734C45.0586 18.1641 48.1445 19.3164 52.9102 21.6797C55.918 23.1836 58.457 24.2773 60.0781 24.8242C65.6055 26.6211 68.7891 28.9648 70.4883 32.4609C71.4844 34.5117 71.6992 35.7031 71.6406 38.7695C71.582 41.7969 71.6992 42.207 72.6758 42.5586C73.125 42.7148 73.418 42.6953 73.9258 42.5C75 42.0508 75.0977 41.6797 75.1172 37.9102L75.1562 34.4922L75.6641 34.043C77.4805 32.5 79.8047 33.4766 81.25 36.4062C82.5 38.9453 83.125 42.6172 83.3203 48.4375C83.5938 56.4453 82.3633 63.1055 80.0781 65.9961C79.1211 67.207 77.832 67.8711 76.7969 67.6758C75.3516 67.4219 75.2734 67.2656 75.1172 64.8047C74.8828 60.8203 74.5508 60.0586 73.0273 60.0586C72.3828 60.0586 72.1289 60.1758 71.7383 60.625C71.2891 61.1719 71.2695 61.2695 71.4258 62.5781C71.6602 64.5508 71.6016 67.3047 71.3086 68.5547C71.1719 69.1406 70.7031 70.3711 70.2734 71.25C66.7383 78.4961 55.0391 82.4023 36.9141 82.4219C32.3633 82.4219 31.2109 82.2461 30 81.4258C28.2617 80.2344 27.6758 77.3047 28.7695 75.2148C29.4141 73.9648 29.4336 73.2227 28.8477 72.5391C28.4766 72.1094 28.1836 72.0117 26.9531 71.875C25.1758 71.6992 23.9062 71.1328 22.7344 69.9805C20.7031 68.0273 20.2539 65.332 21.4648 62.4609C22.2461 60.5859 22.168 60.1367 20.7812 59.2188C17.8906 57.2852 16.3672 54.4336 16.6797 51.5039C16.8555 49.707 17.5781 48.3594 19.1602 46.8555C20.332 45.7227 20.5078 45.4688 20.5078 44.8438C20.5078 44.2578 20.332 43.9844 19.375 43.0273C17.8125 41.4648 17.3242 40.3711 17.2266 38.2812C17.1289 36.2109 17.5977 34.8438 18.8477 33.457C21.6211 30.3516 26.8359 30 34.1992 32.4023C36.0742 33.0078 36.7969 33.1641 37.1289 33.0273C38.3984 32.5391 38.7695 30.9766 37.8125 30.1367C37.1875 29.6094 33.0664 28.2617 30.625 27.793L28.8477 27.4609L28.9453 25.7617C29.1602 21.9727 31.5039 19.1797 35.3516 18.0859C35.9375 17.9297 36.6992 17.7539 37.0117 17.7148C38.2227 17.5586 41.3477 17.5977 42.5781 17.7734Z" fill="white"/>
</svg>
