<svg width="100" height="100" viewBox="0 0 100 100" fill="none" xmlns="http://www.w3.org/2000/svg">
<path d="M56.9922 14.082C59.5508 14.3164 64.3164 15.1758 67.168 15.9375C71.2891 17.0117 74.2188 18.2422 77.0508 20.0781C78.3984 20.9766 81.582 23.9648 82.3633 25.0781L82.7734 25.6641L83.3984 25.1172C84.7461 23.9844 85.8984 23.5547 87.5977 23.5547C88.9453 23.5352 89.3359 23.6133 90.4492 24.1406C95.4492 26.5234 98.418 34.5898 99.2383 48.0469C99.7852 57.207 98.3398 64.0039 95.0977 67.4805C93.3984 69.2969 92.2266 69.8242 89.9414 69.8242C88.3984 69.8242 88.0469 69.7461 87.0508 69.2578C86.4258 68.9648 85.8984 68.75 85.8594 68.7695C85.8398 68.8086 85.3906 69.4922 84.8828 70.2734C80.4883 76.9531 71.6992 81.6406 63.5352 81.6406H61.2891L60.0781 82.5586C58.6914 83.5938 55.8984 84.9805 54.1992 85.4492C52.4219 85.9375 48.0664 86.0742 46.4844 85.6641C42.832 84.7461 40.0781 82.4023 39.1211 79.375L38.8086 78.3789L37.2852 78.0469C34.3359 77.4219 31.4063 75.4883 30.0195 73.3008C28.2227 70.4688 28.2813 66.7188 30.1758 63.5938C30.5469 62.9688 30.8398 62.4219 30.8203 62.4023C30.7813 62.3828 29.4922 62.5 27.9297 62.6367C23.5742 63.0469 15.2734 63.0273 12.4023 62.6172C7.69531 61.9336 5.3125 61.0742 3.4375 59.3555C-0.390625 55.8594 -0.15625 49.082 3.90625 44.9414C6.30859 42.5 9.41406 41.5039 15.918 41.0547L17.8711 40.918L16.7188 40.3711C13.7305 38.9844 10.8594 36.543 9.70703 34.4141C7.34375 30.0391 9.35547 24.0625 14.0234 21.6211C19.2383 18.8672 28.5156 19.3164 39.0234 22.8125L41.2109 23.5547L41.9922 21.9727C44.8047 16.1328 49.9414 13.4375 56.9922 14.082ZM51.8555 17.8906C48.4766 18.7109 46.2695 20.7617 44.6484 24.5703C43.7695 26.6602 42.8125 28.0078 39.9609 31.1523C36.4258 35.0391 36.3281 35.3711 38.3008 37.1875C41.2695 39.9414 45.4102 40.8203 48.5156 39.375C51.5234 37.9883 54.7266 34.1602 55.1758 31.3867C55.3711 30.3125 56.0352 29.6875 56.9922 29.6875C58.1836 29.6875 58.6523 30.332 58.7109 31.9922C58.75 33.6719 58.9258 34.4336 59.5117 35.6445C60.8789 38.3203 63.457 40.0781 66.8359 40.6055C67.7734 40.7617 68.1641 40.9375 68.4961 41.3086C69.1406 42.0312 69.082 42.8711 68.3398 43.5937C67.7734 44.1797 67.7148 44.1992 66.4258 44.0625C62.793 43.7305 59.0625 41.5234 57.1094 38.5156C56.7188 37.9102 56.3477 37.3633 56.3086 37.3242C56.2695 37.2656 56.0938 37.4414 55.918 37.7148C54.6484 39.5312 52.1094 41.582 49.9023 42.5977C48.9258 43.0469 48.6328 43.2422 48.8086 43.418C49.1797 43.7891 49.0625 44.8633 48.5547 45.4492L48.0664 45.9961L45.4688 45.957C44.043 45.918 40.1367 45.6836 36.8164 45.4102C27.832 44.6875 24.7656 44.5312 20.0586 44.5312C13.9258 44.5312 10.3125 45.0195 8.08594 46.1328C5.52734 47.4023 3.78906 50.957 4.31641 53.8672C4.98047 57.4609 7.85156 58.8281 15.9375 59.3945C19.5898 59.6484 24.5508 59.4531 31.4063 58.7695L35.4297 58.3594L36.8945 57.4805C39.8633 55.6641 43.6133 54.1406 47.3633 53.1836C50 52.5391 54.3555 52.3438 56.3281 52.8125C58.2813 53.2813 59.8047 54.1602 61.1523 55.6445C63.6719 58.3984 64.4141 61.2891 63.3984 64.3359L62.8711 65.8789L63.8477 66.875C66.3477 69.4141 66.6797 72.9492 64.7852 76.7969L64.1406 78.125H64.8047C65.9766 78.125 69.3555 77.3438 71.1719 76.6406C72.1484 76.2695 73.6523 75.5664 74.5117 75.0586C82.3047 70.5859 85.9766 63.3984 84.375 55.7031C84.1406 54.4922 84.0625 53.7109 84.1797 53.418C84.5898 52.3242 86.1719 51.9727 86.9922 52.8125C87.793 53.5938 88.1836 55.8594 88.1641 59.375C88.1641 61.7578 88.0664 62.6953 87.7539 63.8281C87.3242 65.4102 87.3438 65.4492 88.6133 66.0938C89.9609 66.7773 91.5234 66.3477 92.6953 64.9609C95.5859 61.582 96.5234 53.2227 95.1953 42.5391C94.1992 34.4531 91.875 28.75 89.0039 27.3633C87.5781 26.6797 86.5039 26.9141 85.4688 28.125C84.8242 28.9062 84.8242 29.1602 85.5664 31.2109C86.6602 34.3164 87.4805 38.7305 87.5 41.543C87.5 42.6367 87.4609 42.7734 86.8945 43.2422C86.2109 43.8281 85.7617 43.8672 84.9609 43.457C84.2773 43.1055 84.0625 42.4414 83.8867 40.2344C83.5352 35.8008 82.3242 31.6016 80.5469 28.6719C77.1484 23.0859 71.2695 19.9609 60.8594 18.1641C56.2695 17.3828 54.2188 17.3242 51.8555 17.8906ZM18.0469 23.8281C14.668 24.6875 12.8711 26.4648 12.3047 29.4531C11.2695 35.0195 19.5313 39.3945 35.1953 41.582C39.1602 42.1484 39.1406 42.1484 37.4219 41.0156C34.3555 38.9648 33.0859 36.7187 33.5938 34.2578C33.8867 32.8711 34.9023 31.3867 37.2852 28.8477C38.3594 27.6758 39.2578 26.6992 39.2578 26.6602C39.2578 26.5234 35.0977 25.2344 33.0078 24.7266C26.9531 23.2617 21.5234 22.9492 18.0469 23.8281ZM49.043 56.4453C46.3867 56.9922 44.4531 57.6563 41.6211 59.0039C37.1875 61.1328 34.0234 63.6328 32.9102 65.918C31.7188 68.3398 32.1289 70.8008 33.9844 72.5391C36.6797 75.0586 40.7227 75.4883 45.8984 73.8086C49.5898 72.5977 54.8633 69.375 57.6367 66.6211C59.4531 64.8047 60.1563 63.5938 60.3125 62.1094C60.4297 60.8984 60.1172 60.0195 59.082 58.6328C58.1641 57.3633 57.207 56.6797 55.8594 56.3281C54.4727 55.9375 51.2109 55.9961 49.043 56.4453ZM55.3906 72.8711C51.5039 75.4883 47.4023 77.3047 43.8867 77.9688C42.3438 78.2617 42.2656 78.457 43.2227 79.7266C43.9453 80.6836 45.3906 81.7188 46.4453 82.0508C46.8359 82.168 48.1055 82.3242 49.2578 82.3633C51.875 82.4805 53.6719 82.1289 55.918 81.0156C59.1797 79.3945 62.1875 75.5469 62.4414 72.6563C62.5781 71.2305 62.1484 69.9609 61.2891 69.2383L60.7031 68.75L59.2188 70.0391C58.3984 70.7422 56.6797 72.0313 55.3906 72.8711Z" fill="white"/>
</svg>
